<svg width="843" height="339" viewBox="0 0 843 339" fill="none" xmlns="http://www.w3.org/2000/svg">
<g clip-path="url(#clip0_424_141)">
<path d="M829.828 0H13.1719C5.89725 0 0 4.21599 0 9.41667V329.583C0 334.784 5.89725 339 13.1719 339H829.828C837.103 339 843 334.784 843 329.583V9.41667C843 4.21599 837.103 0 829.828 0Z" fill="url(#paint0_linear_424_141)"/>
<g style="mix-blend-mode:screen" filter="url(#filter0_f_424_141)">
<path style="mix-blend-mode:screen" d="M-22.8746 394.15C-12.5928 400.748 2.55146 399.74 10.951 391.897L114.534 295.173C122.934 287.33 121.408 275.623 111.126 269.023C100.844 262.425 85.7001 263.433 77.3004 271.277L-26.2826 368C-34.6822 375.843 -33.1564 387.55 -22.8746 394.15Z" fill="url(#paint1_radial_424_141)"/>
</g>
<g style="mix-blend-mode:screen" filter="url(#filter1_f_424_141)">
<path style="mix-blend-mode:screen" d="M-114.522 334.376C-49.0096 361.459 30.5686 343.848 63.2211 295.041L81.1579 268.23C113.81 219.424 87.1721 157.903 21.6601 130.821C-43.8521 103.738 -123.43 121.348 -156.083 170.155L-174.02 196.966C-206.672 245.772 -180.034 307.293 -114.522 334.376Z" fill="url(#paint2_radial_424_141)"/>
</g>
<g style="mix-blend-mode:screen" filter="url(#filter2_f_424_141)">
<path style="mix-blend-mode:screen" d="M1116.59 600.515C1204 606.156 1275.7 559.863 1276.74 497.125L1281.59 204.037C1282.63 141.297 1212.61 85.8658 1125.2 80.2281L754.999 56.3502C667.59 50.712 595.888 97.002 594.85 159.742L590.003 452.83C588.965 515.572 658.982 570.998 746.397 576.639L1116.59 600.515Z" fill="url(#paint3_radial_424_141)"/>
</g>
<g style="mix-blend-mode:overlay">
<g style="mix-blend-mode:overlay">
<path d="M5.31082 276.922C-0.580379 303.818 8.80675 350.09 93.4848 320.008C199.333 282.406 500.61 207.474 433.557 351.897" stroke="white" stroke-width="0.697114"/>
</g>
<g style="mix-blend-mode:overlay">
<path d="M342.676 -129.044C414.047 82.1637 -107.284 -40.01 27.1196 -8.33483C390.113 77.2124 244.026 271.467 401.014 369.574" stroke="white" stroke-width="0.697114"/>
</g>
<g style="mix-blend-mode:overlay">
<path d="M8.55314 265.387C4.6811 298.318 -2.59579 338.472 83.5223 310.445C197.332 277.146 483.499 210.305 423.784 353.52" stroke="white" stroke-width="0.697114"/>
</g>
<g style="mix-blend-mode:overlay">
<path d="M12.0147 253.663C10.1936 292.625 -13.7794 326.705 73.7888 300.73C195.585 271.712 466.686 213.002 414.302 354.99" stroke="white" stroke-width="0.697114"/>
</g>
<g style="mix-blend-mode:overlay">
<path d="M15.6629 241.774C15.9245 286.76 -24.7766 314.812 64.2538 290.884C194.057 266.126 450.137 215.587 405.076 356.33" stroke="white" stroke-width="0.697114"/>
</g>
<g style="mix-blend-mode:overlay">
<path d="M19.4701 229.737C21.8461 280.742 -35.6148 302.811 54.8885 280.926C192.724 260.406 433.824 218.08 396.081 357.556" stroke="white" stroke-width="0.697114"/>
</g>
<g style="mix-blend-mode:overlay">
<path d="M23.4137 217.567C27.9358 274.585 -46.3167 290.716 45.6707 270.87C191.56 254.567 417.726 220.492 387.293 358.685" stroke="white" stroke-width="0.697114"/>
</g>
<g style="mix-blend-mode:overlay">
<path d="M27.4746 205.277C34.1745 268.303 -56.9009 278.541 36.5816 260.73C190.547 248.622 401.824 222.839 378.695 359.727" stroke="white" stroke-width="0.697114"/>
</g>
<g style="mix-blend-mode:overlay">
<path d="M31.6367 192.878C40.546 261.906 -67.3834 266.296 27.6051 250.517C189.67 242.58 386.102 225.13 370.269 360.695" stroke="white" stroke-width="0.697114"/>
</g>
<g style="mix-blend-mode:overlay">
<path d="M35.886 180.378C47.0363 255.402 -77.7786 253.991 18.7274 240.238C188.914 236.453 370.545 227.374 362.002 361.598" stroke="white" stroke-width="0.697114"/>
</g>
<g style="mix-blend-mode:overlay">
<path d="M40.2106 167.786C53.6337 248.801 -88.0968 241.633 9.93682 229.903C188.268 230.246 355.143 229.579 353.882 362.442" stroke="white" stroke-width="0.697114"/>
</g>
<g style="mix-blend-mode:overlay">
<path d="M44.6002 155.108C60.3275 242.108 -98.3498 229.229 1.22305 219.518C187.72 223.968 339.885 231.752 345.899 363.235" stroke="white" stroke-width="0.697114"/>
</g>
<g style="mix-blend-mode:overlay">
<path d="M49.0455 142.351C67.1087 235.329 -108.546 216.786 -7.423 209.089C187.263 217.624 324.763 233.899 338.044 363.982" stroke="white" stroke-width="0.697114"/>
</g>
<g style="mix-blend-mode:overlay">
<path d="M54.4502 130.141C74.8808 229.092 -117.782 204.929 -15.0975 199.242C187.799 211.841 310.679 236.645 331.221 365.31" stroke="white" stroke-width="0.697114"/>
</g>
<g style="mix-blend-mode:overlay">
<path d="M64.2979 120.846C87.1273 225.764 -122.573 196.028 -18.3168 192.347C192.813 208.985 301.118 242.36 328.912 369.587" stroke="white" stroke-width="0.697114"/>
</g>
<g style="mix-blend-mode:overlay">
<path d="M74.2551 111.51C99.5148 222.388 -127.254 187.123 -21.4143 185.444C197.97 206.102 291.746 248.085 326.786 373.855" stroke="white" stroke-width="0.697114"/>
</g>
<g style="mix-blend-mode:overlay">
<path d="M84.3026 102.125C112.024 218.957 -131.842 178.211 -24.4086 178.529C203.253 203.183 282.545 253.814 324.823 378.109" stroke="white" stroke-width="0.697114"/>
</g>
<g style="mix-blend-mode:overlay">
<path d="M94.4265 92.6896C124.641 215.47 -136.352 169.288 -27.3138 171.598C208.646 200.227 273.501 259.545 323.009 382.346" stroke="white" stroke-width="0.697114"/>
</g>
<g style="mix-blend-mode:overlay">
<path d="M104.616 83.2019C137.355 211.924 -140.794 160.352 -30.1408 164.651C214.139 197.232 264.603 265.276 321.334 386.563" stroke="white" stroke-width="0.697114"/>
</g>
<g style="mix-blend-mode:overlay">
<path d="M114.861 73.6609C150.157 208.318 -145.178 151.402 -32.8983 157.686C219.723 194.196 255.843 271.006 319.787 390.76" stroke="white" stroke-width="0.697114"/>
</g>
<g style="mix-blend-mode:overlay">
<path d="M125.157 64.0663C163.039 204.652 -149.511 142.438 -35.5936 150.702C225.392 191.12 247.212 276.733 318.364 394.935" stroke="white" stroke-width="0.697114"/>
</g>
<g style="mix-blend-mode:overlay">
<path d="M138.466 52.1207C178.968 198.629 -150.826 131.163 -35.2606 141.403C234.11 185.706 241.678 280.162 320.028 396.793" stroke="white" stroke-width="0.697114"/>
</g>
<g style="mix-blend-mode:overlay">
<path d="M157.221 35.9098C200.373 188.334 -146.694 115.662 -29.4692 127.873C248.307 176.038 241.67 279.376 327.211 394.418" stroke="white" stroke-width="0.697114"/>
</g>
<g style="mix-blend-mode:overlay">
<path d="M175.941 19.649C221.775 177.983 -142.593 100.151 -23.6987 114.329C262.505 166.334 241.71 278.591 334.433 392.025" stroke="white" stroke-width="0.697114"/>
</g>
<g style="mix-blend-mode:overlay">
<path d="M194.626 3.33789C243.173 167.574 -138.525 84.6294 -17.9504 100.77C276.702 156.593 241.795 277.808 341.693 389.614" stroke="white" stroke-width="0.697114"/>
</g>
<g style="mix-blend-mode:overlay">
<path d="M213.273 -13.0248C264.564 157.107 -134.491 69.0961 -12.2257 87.1936C290.896 146.812 241.925 277.024 348.989 387.184" stroke="white" stroke-width="0.697114"/>
</g>
<g style="mix-blend-mode:overlay">
<path d="M231.882 -29.4395C285.947 146.582 -130.493 53.5502 -6.52546 73.6011C305.088 136.992 242.099 276.239 356.321 384.733" stroke="white" stroke-width="0.697114"/>
</g>
<g style="mix-blend-mode:overlay">
<path d="M250.451 -45.9065C307.322 135.996 -126.532 37.9913 -0.850923 59.9912C319.274 127.132 242.316 275.452 363.687 382.262" stroke="white" stroke-width="0.697114"/>
</g>
<g style="mix-blend-mode:overlay">
<path d="M268.98 -62.4264C328.688 125.352 -122.606 22.4194 4.79744 46.3635C333.455 117.231 242.575 274.662 371.087 379.769" stroke="white" stroke-width="0.697114"/>
</g>
<g style="mix-blend-mode:overlay">
<path d="M287.466 -78.9998C350.044 114.646 -118.719 6.83378 10.4188 32.7176C347.63 107.289 242.876 273.869 378.52 377.255" stroke="white" stroke-width="0.697114"/>
</g>
<g style="mix-blend-mode:overlay">
<path d="M305.912 -95.6263C371.389 103.881 -114.87 -8.76564 16.0127 19.0532C361.797 97.3061 243.217 273.073 385.985 374.718" stroke="white" stroke-width="0.697114"/>
</g>
<g style="mix-blend-mode:overlay">
<path d="M324.314 -112.307C392.722 93.0545 -111.06 -24.3791 21.5784 5.37022C375.958 87.2816 243.599 272.274 393.481 372.159" stroke="white" stroke-width="0.697114"/>
</g>
</g>
<g style="mix-blend-mode:screen" filter="url(#filter3_f_424_141)">
<path style="mix-blend-mode:screen" d="M400.84 231.091C400.247 235.722 405.04 239.527 411.545 239.587L663.046 241.943C669.553 242.004 675.309 238.299 675.902 233.667C676.494 229.035 671.7 225.231 665.193 225.17L413.692 222.814C407.187 222.754 401.433 226.459 400.84 231.091Z" fill="url(#paint4_radial_424_141)"/>
</g>
<rect x="580.678" y="176.418" width="240.822" height="132.914" rx="8.5" fill="#F8F6F1" stroke="black" stroke-width="3"/>
<rect x="592.358" y="204.16" width="64.2504" height="89.7858" rx="5" fill="#C1A0C1"/>
<rect x="664.845" y="204.16" width="64.2504" height="89.7858" rx="5" fill="#C1A0C1"/>
<rect x="737.333" y="202.924" width="64.2504" height="89.7858" rx="5" fill="#C1A0C1"/>
<rect x="601.419" y="190.156" width="23.888" height="2.47117" rx="1.23558" fill="black"/>
<rect x="626.542" y="190.156" width="23.888" height="2.47117" rx="1.23558" fill="black"/>
<rect x="592.358" y="188.097" width="7.00165" height="6.58979" rx="3.29489" fill="#8D62C7"/>
<rect x="324.5" y="176.418" width="240.822" height="132.914" rx="8.5" fill="#F8F6F1" stroke="black" stroke-width="3"/>
<rect x="336.18" y="204.16" width="64.2504" height="89.7858" rx="5" fill="#C1A0C1"/>
<rect x="345.24" y="190.156" width="23.888" height="2.47117" rx="1.23558" fill="black"/>
<rect x="370.364" y="190.156" width="23.888" height="2.47117" rx="1.23558" fill="black"/>
<rect x="336.18" y="188.097" width="7.00165" height="6.58979" rx="3.29489" fill="#8D62C7"/>
<rect x="413.198" y="211.573" width="125.206" height="4.53048" rx="2.26524" fill="black"/>
<rect x="413.198" y="221.458" width="114.086" height="4.53048" rx="2.26524" fill="black"/>
<rect x="422.26" y="235.873" width="92.6689" height="2.47117" rx="1.23558" fill="black"/>
<rect x="413.199" y="235.049" width="4.53048" height="4.11862" rx="2.05931" fill="#8D62C7"/>
<rect x="422.26" y="245.346" width="92.6689" height="2.47117" rx="1.23558" fill="black"/>
<rect x="413.199" y="244.522" width="4.53048" height="4.11862" rx="2.05931" fill="#8D62C7"/>
<rect x="422.26" y="254.819" width="92.6689" height="2.47117" rx="1.23558" fill="black"/>
<rect x="413.199" y="253.995" width="4.53048" height="4.11862" rx="2.05931" fill="#8D62C7"/>
<rect x="422.26" y="264.292" width="92.6689" height="2.47117" rx="1.23558" fill="black"/>
<rect x="413.199" y="263.468" width="4.53048" height="4.11862" rx="2.05931" fill="#8D62C7"/>
<rect x="422.26" y="273.765" width="92.6689" height="2.47117" rx="1.23558" fill="black"/>
<rect x="413.199" y="272.941" width="4.53048" height="4.11862" rx="2.05931" fill="#8D62C7"/>
<rect x="422.26" y="283.237" width="92.6689" height="2.47117" rx="1.23558" fill="black"/>
<rect x="413.199" y="282.413" width="4.53048" height="4.11862" rx="2.05931" fill="#8D62C7"/>
<rect x="580.678" y="26.5" width="240.822" height="132.914" rx="8.5" fill="#F8F6F1" stroke="black" stroke-width="3"/>
<rect x="664.846" y="55.8896" width="114.498" height="4.53048" rx="2.26524" fill="black"/>
<rect x="664.846" y="77.3064" width="114.498" height="4.53048" rx="2.26524" fill="black"/>
<rect x="664.846" y="102.018" width="114.498" height="4.53048" rx="2.26524" fill="black"/>
<rect x="664.846" y="125.082" width="114.498" height="4.53048" rx="2.26524" fill="black"/>
<rect x="622.836" y="48.8881" width="34.1845" height="18.8868" rx="5" fill="#8D62C7"/>
<rect x="622.836" y="71.9719" width="34.1845" height="18.8868" rx="5" fill="#C1A0C1"/>
<rect x="622.836" y="95.0558" width="34.1845" height="18.8868" rx="5" fill="#8D62C7"/>
<rect x="622.836" y="118.14" width="34.1845" height="18.8868" rx="5" fill="#C1A0C1"/>
<rect x="324.5" y="26.5" width="240.822" height="132.914" rx="8.5" fill="#F8F6F1" stroke="black" stroke-width="3"/>
<rect x="362.951" y="72.7759" width="163.509" height="10.2965" rx="5.14827" fill="#8D62C7"/>
<rect x="374.071" y="90.486" width="141.68" height="10.2965" rx="5.14827" fill="#8D62C7"/>
<rect x="416.905" y="108.196" width="55.1895" height="4.53048" rx="2.26524" fill="black"/>
</g>
<defs>
<filter id="filter0_f_424_141" x="-152.352" y="144.019" width="392.955" height="375.135" filterUnits="userSpaceOnUse" color-interpolation-filters="sRGB">
<feFlood flood-opacity="0" result="BackgroundImageFix"/>
<feBlend mode="normal" in="SourceGraphic" in2="BackgroundImageFix" result="shape"/>
<feGaussianBlur stdDeviation="60.323" result="effect1_foregroundBlur_424_141"/>
</filter>
<filter id="filter1_f_424_141" x="-308.612" y="-2.53773" width="524.362" height="470.272" filterUnits="userSpaceOnUse" color-interpolation-filters="sRGB">
<feFlood flood-opacity="0" result="BackgroundImageFix"/>
<feBlend mode="normal" in="SourceGraphic" in2="BackgroundImageFix" result="shape"/>
<feGaussianBlur stdDeviation="60.323" result="effect1_foregroundBlur_424_141"/>
</filter>
<filter id="filter2_f_424_141" x="469.346" y="-64.7607" width="932.902" height="786.387" filterUnits="userSpaceOnUse" color-interpolation-filters="sRGB">
<feFlood flood-opacity="0" result="BackgroundImageFix"/>
<feBlend mode="normal" in="SourceGraphic" in2="BackgroundImageFix" result="shape"/>
<feGaussianBlur stdDeviation="60.323" result="effect1_foregroundBlur_424_141"/>
</filter>
<filter id="filter3_f_424_141" x="248.866" y="70.889" width="579.01" height="322.98" filterUnits="userSpaceOnUse" color-interpolation-filters="sRGB">
<feFlood flood-opacity="0" result="BackgroundImageFix"/>
<feBlend mode="normal" in="SourceGraphic" in2="BackgroundImageFix" result="shape"/>
<feGaussianBlur stdDeviation="75.9623" result="effect1_foregroundBlur_424_141"/>
</filter>
<linearGradient id="paint0_linear_424_141" x1="-0.0131185" y1="338.998" x2="234.682" y2="-244.626" gradientUnits="userSpaceOnUse">
<stop stop-color="#000B2A"/>
<stop offset="1" stop-color="#011E4C"/>
</linearGradient>
<radialGradient id="paint1_radial_424_141" cx="0" cy="0" r="1" gradientUnits="userSpaceOnUse" gradientTransform="translate(14.9611 354.707) rotate(-73.2602) scale(36.6209 48.1367)">
<stop stop-color="#444CE4"/>
<stop offset="1" stop-color="#F257A0"/>
</radialGradient>
<radialGradient id="paint2_radial_424_141" cx="0" cy="0" r="1" gradientUnits="userSpaceOnUse" gradientTransform="translate(28.384 221.952) rotate(162.415) scale(127.189 104.752)">
<stop stop-color="#FFD7D7"/>
<stop offset="0.0001"/>
<stop offset="0.778467" stop-color="#6343FF"/>
<stop offset="1" stop-color="#EE8969" stop-opacity="0"/>
</radialGradient>
<radialGradient id="paint3_radial_424_141" cx="0" cy="0" r="1" gradientUnits="userSpaceOnUse" gradientTransform="translate(1090.67 255.091) rotate(143.356) scale(273.65 282.485)">
<stop stop-color="#FFD7D7"/>
<stop offset="0.0001"/>
<stop offset="0.778467" stop-color="#6343FF"/>
<stop offset="1" stop-color="#EE8969" stop-opacity="0"/>
</radialGradient>
<radialGradient id="paint4_radial_424_141" cx="0" cy="0" r="1" gradientUnits="userSpaceOnUse" gradientTransform="translate(484.013 230.692) rotate(-6.89199) scale(55.8341 18.5514)">
<stop stop-color="#444CE4"/>
<stop offset="1" stop-color="#F257A0"/>
</radialGradient>
<clipPath id="clip0_424_141">
<rect width="843" height="339" fill="white"/>
</clipPath>
</defs>
</svg>
