<svg width="28" height="28" viewBox="0 0 35 32" fill="none" xmlns="http://www.w3.org/2000/svg">
<path d="M7.63636 1.04279L17.5 0L27.3636 1.04279L35 11.2939L17.5 31.6725L0 11.2939L7.63636 1.04279Z" fill="#FDB300"/>
<path d="M7.08837 11.2939L17.5 31.6725L0 11.2939H7.08837Z" fill="#EA6C00"/>
<path d="M27.9116 11.2939L17.5 31.6725L35 11.2939H27.9116Z" fill="#EA6C00"/>
<path d="M7.08887 11.2939H27.9121L17.5005 31.6725L7.08887 11.2939Z" fill="#FDAD00"/>
<path d="M17.5005 0L7.63682 1.04277L7.08887 11.2939L17.5005 0Z" fill="#FDD231"/>
<path d="M17.5015 0L27.3651 1.04277L27.9131 11.2939L17.5015 0Z" fill="#FDD231"/>
<path d="M35 11.2941L27.3636 1.04297L27.9116 11.2941H35Z" fill="#FDAD00"/>
<path d="M0 11.2941L7.63633 1.04297L7.08837 11.2941H0Z" fill="#FDAD00"/>
<path d="M17.5005 0L7.08887 11.2939H27.9121L17.5005 0Z" fill="#FEEEB7"/>
</svg>
