<svg width="39" height="39" viewBox="0 0 39 39" fill="none" xmlns="http://www.w3.org/2000/svg">
<g clip-path="url(#clip0_453_766)">
<path fill-rule="evenodd" clip-rule="evenodd" d="M6.5 0C4.70507 0 3.25 1.45507 3.25 3.25V35.75C3.25 37.5449 4.70508 39 6.5 39H32.5C34.2949 39 35.75 37.5449 35.75 35.75V0H6.5ZM35.75 2.55704e-05V6.5L29.25 2.50021e-05L35.75 2.55704e-05Z" fill="#E2E8F0"/>
<path fill-rule="evenodd" clip-rule="evenodd" d="M29.25 0V6.49997H35.75L29.25 0Z" fill="#94A3B8"/>
<path fill-rule="evenodd" clip-rule="evenodd" d="M35.75 13V6.5H29.25L35.75 13Z" fill="#CBD5E1"/>
</g>
<rect x="1" y="25" width="37" height="10" rx="1" fill="#EF4444"/>
<path d="M12.2383 33H13.2461V31.1367H14.4883C15.6328 31.1367 16.4062 30.3789 16.4062 29.2539V29.2461C16.4062 28.1172 15.6328 27.3633 14.4883 27.3633H12.2383V33ZM14.2422 28.1875C14.9648 28.1875 15.3867 28.5742 15.3867 29.25V29.2578C15.3867 29.9336 14.9648 30.3242 14.2422 30.3242H13.2461V28.1875H14.2422ZM17.5195 33H19.6328C21.3203 33 22.2852 31.9648 22.2852 30.1602V30.1523C22.2852 28.3867 21.3086 27.3633 19.6328 27.3633H17.5195V33ZM18.5273 32.1523V28.2109H19.5C20.6055 28.2109 21.2578 28.9297 21.2578 30.168V30.1758C21.2578 31.4414 20.6211 32.1523 19.5 32.1523H18.5273ZM23.4414 33H24.4492V30.6992H26.8125V29.8789H24.4492V28.2109H27.0352V27.3633H23.4414V33Z" fill="white"/>
<defs>
<clipPath id="clip0_453_766">
<rect width="32.5" height="39" fill="white" transform="translate(3.25)"/>
</clipPath>
</defs>
</svg>
