<svg width="50" height="50" viewBox="0 0 50 50" fill="none" xmlns="http://www.w3.org/2000/svg">
<circle cx="25" cy="25" r="25" fill="url(#paint0_linear_453_739)"/>
<path d="M34.603 26.3814L30.6861 25.262C28.9222 24.7647 27.3154 23.8231 26.0195 22.5272C24.7237 21.2313 23.782 19.6246 23.2847 17.8607L22.1654 13.9437C22.1091 13.8067 22.0134 13.6895 21.8903 13.607C21.7672 13.5245 21.6224 13.4805 21.4743 13.4805C21.3261 13.4805 21.1813 13.5245 21.0582 13.607C20.9352 13.6895 20.8394 13.8067 20.7831 13.9437L19.6638 17.8607C19.1665 19.6246 18.2249 21.2313 16.929 22.5272C15.6331 23.8231 14.0263 24.7647 12.2624 25.262L8.34551 26.3814C8.19511 26.4241 8.06275 26.5146 7.96849 26.6394C7.87424 26.7641 7.82324 26.9162 7.82324 27.0725C7.82324 27.2288 7.87424 27.3809 7.96849 27.5056C8.06275 27.6304 8.19511 27.721 8.34551 27.7636L12.2624 28.883C14.0263 29.3803 15.6331 30.3219 16.929 31.6178C18.2249 32.9137 19.1665 34.5204 19.6638 36.2843L20.7831 40.2013C20.8258 40.3517 20.9164 40.484 21.0411 40.5783C21.1659 40.6725 21.3179 40.7235 21.4743 40.7235C21.6306 40.7235 21.7827 40.6725 21.9074 40.5783C22.0321 40.484 22.1227 40.3517 22.1654 40.2013L23.2847 36.2843C23.782 34.5204 24.7237 32.9137 26.0195 31.6178C27.3154 30.3219 28.9222 29.3803 30.6861 28.883L34.603 27.7636C34.7534 27.721 34.8858 27.6304 34.98 27.5056C35.0743 27.3809 35.1253 27.2288 35.1253 27.0725C35.1253 26.9162 35.0743 26.7641 34.98 26.6394C34.8858 26.5146 34.7534 26.4241 34.603 26.3814Z" fill="white"/>
<path d="M41.5793 15.3468L39.6467 14.7933C38.7764 14.5475 37.9836 14.0818 37.3442 13.4411C36.7048 12.8003 36.2402 12.0058 35.9949 11.1336L35.4426 9.19685C35.4148 9.12908 35.3676 9.07113 35.3068 9.03034C35.2461 8.98955 35.1747 8.96777 35.1016 8.96777C35.0285 8.96777 34.957 8.98955 34.8963 9.03034C34.8356 9.07113 34.7883 9.12908 34.7606 9.19685L34.2083 11.1336C33.9629 12.0058 33.4983 12.8003 32.859 13.4411C32.2196 14.0818 31.4268 14.5475 30.5565 14.7933L28.6239 15.3468C28.5497 15.3679 28.4844 15.4127 28.4379 15.4744C28.3914 15.5361 28.3662 15.6113 28.3662 15.6886C28.3662 15.7659 28.3914 15.8411 28.4379 15.9027C28.4844 15.9644 28.5497 16.0092 28.6239 16.0303L30.5565 16.5838C31.4268 16.8297 32.2196 17.2953 32.859 17.936C33.4983 18.5768 33.9629 19.3713 34.2083 20.2435L34.7606 22.1803C34.7816 22.2546 34.8263 22.3201 34.8879 22.3667C34.9494 22.4133 35.0244 22.4385 35.1016 22.4385C35.1787 22.4385 35.2537 22.4133 35.3153 22.3667C35.3768 22.3201 35.4215 22.2546 35.4426 22.1803L35.9949 20.2435C36.2402 19.3713 36.7048 18.5768 37.3442 17.936C37.9836 17.2953 38.7764 16.8297 39.6467 16.5838L41.5793 16.0303C41.6535 16.0092 41.7188 15.9644 41.7653 15.9027C41.8118 15.8411 41.8369 15.7659 41.8369 15.6886C41.8369 15.6113 41.8118 15.5361 41.7653 15.4744C41.7188 15.4127 41.6535 15.3679 41.5793 15.3468Z" fill="white"/>
<defs>
<linearGradient id="paint0_linear_453_739" x1="-1.92257" y1="12.7317" x2="57.0027" y2="35.4969" gradientUnits="userSpaceOnUse">
<stop stop-color="#9C0BD2"/>
<stop offset="0.47" stop-color="#FF568B"/>
<stop offset="0.77" stop-color="#FBB011"/>
<stop offset="0.85" stop-color="#FBCD18"/>
<stop offset="0.93" stop-color="#FCED21"/>
</linearGradient>
</defs>
</svg>
