<svg width="48" height="48" viewBox="0 0 48 48" fill="none" xmlns="http://www.w3.org/2000/svg">
<circle cx="24" cy="24" r="24" fill="url(#paint0_linear_440_234)"/>
<path d="M33.2184 25.3263L29.4581 24.2517C27.7648 23.7743 26.2223 22.8703 24.9782 21.6263C23.7342 20.3822 22.8302 18.8397 22.3528 17.1464L21.2782 13.3861C21.2242 13.2546 21.1323 13.1421 21.0141 13.0629C20.896 12.9837 20.757 12.9414 20.6148 12.9414C20.4725 12.9414 20.3335 12.9837 20.2154 13.0629C20.0972 13.1421 20.0053 13.2546 19.9513 13.3861L18.8767 17.1464C18.3993 18.8397 17.4953 20.3822 16.2513 21.6263C15.0072 22.8703 13.4647 23.7743 11.7714 24.2517L8.01114 25.3263C7.86676 25.3672 7.73969 25.4542 7.64921 25.5739C7.55872 25.6937 7.50977 25.8397 7.50977 25.9898C7.50977 26.1398 7.55872 26.2858 7.64921 26.4056C7.73969 26.5253 7.86676 26.6123 8.01114 26.6532L11.7714 27.7278C13.4647 28.2052 15.0072 29.1092 16.2513 30.3532C17.4953 31.5973 18.3993 33.1398 18.8767 34.8331L19.9513 38.5934C19.9922 38.7377 20.0792 38.8648 20.1989 38.9553C20.3187 39.0458 20.4647 39.0947 20.6148 39.0947C20.7648 39.0947 20.9108 39.0458 21.0306 38.9553C21.1503 38.8648 21.2373 38.7377 21.2782 38.5934L22.3528 34.8331C22.8302 33.1398 23.7342 31.5973 24.9782 30.3532C26.2223 29.1092 27.7648 28.2052 29.4581 27.7278L33.2184 26.6532C33.3627 26.6123 33.4898 26.5253 33.5803 26.4056C33.6708 26.2858 33.7197 26.1398 33.7197 25.9898C33.7197 25.8397 33.6708 25.6937 33.5803 25.5739C33.4898 25.4542 33.3627 25.3672 33.2184 25.3263Z" fill="white"/>
<path d="M39.915 14.7333L38.0597 14.2019C37.2242 13.9659 36.4632 13.5189 35.8493 12.9037C35.2355 12.2886 34.7895 11.5259 34.554 10.6886L34.0238 8.82928C33.9971 8.76423 33.9518 8.70859 33.8935 8.66944C33.8352 8.63028 33.7666 8.60938 33.6964 8.60938C33.6262 8.60938 33.5577 8.63028 33.4994 8.66944C33.4411 8.70859 33.3957 8.76423 33.3691 8.82928L32.8389 10.6886C32.6033 11.5259 32.1573 12.2886 31.5435 12.9037C30.9297 13.5189 30.1686 13.9659 29.3331 14.2019L27.4778 14.7333C27.4066 14.7535 27.3439 14.7965 27.2993 14.8557C27.2546 14.9149 27.2305 14.9871 27.2305 15.0613C27.2305 15.1355 27.2546 15.2077 27.2993 15.2669C27.3439 15.3261 27.4066 15.3691 27.4778 15.3894L29.3331 15.9207C30.1686 16.1568 30.9297 16.6038 31.5435 17.2189C32.1573 17.834 32.6033 18.5968 32.8389 19.4341L33.3691 21.2934C33.3893 21.3648 33.4322 21.4276 33.4913 21.4723C33.5503 21.5171 33.6224 21.5413 33.6964 21.5413C33.7705 21.5413 33.8425 21.5171 33.9016 21.4723C33.9607 21.4276 34.0036 21.3648 34.0238 21.2934L34.554 19.4341C34.7895 18.5968 35.2355 17.834 35.8493 17.2189C36.4632 16.6038 37.2242 16.1568 38.0597 15.9207L39.915 15.3894C39.9862 15.3691 40.0489 15.3261 40.0936 15.2669C40.1382 15.2077 40.1624 15.1355 40.1624 15.0613C40.1624 14.9871 40.1382 14.9149 40.0936 14.8557C40.0489 14.7965 39.9862 14.7535 39.915 14.7333Z" fill="white"/>
<defs>
<linearGradient id="paint0_linear_440_234" x1="24" y1="0" x2="24" y2="48" gradientUnits="userSpaceOnUse">
<stop stop-color="#4C9944"/>
<stop offset="1" stop-color="#A6FF00"/>
</linearGradient>
</defs>
</svg>
